<svg xmlns="http://www.w3.org/2000/svg" version="1.1" width="512px" height="512px" viewBox="0 0 1270 1270" style="shape-rendering:geometricPrecision; text-rendering:geometricPrecision; image-rendering:optimizeQuality; fill-rule:evenodd; clip-rule:evenodd" xmlns:xlink="http://www.w3.org/1999/xlink">
    <g><path style="opacity:1" fill="#1d474c" d="M -0.5,-0.5 C 423.5,-0.5 847.5,-0.5 1271.5,-0.5C 1271.5,422.833 1271.5,846.167 1271.5,1269.5C 847.5,1269.5 423.5,1269.5 -0.5,1269.5C -0.5,846.167 -0.5,422.833 -0.5,-0.5 Z"/></g>
    <g><path style="opacity:1" fill="#d1f05d" d="M 508.5,761.5 C 508.333,595.5 508.5,429.5 509,263.5C 509.943,257.756 513.11,253.923 518.5,252C 682.501,251.167 846.501,251.333 1010.5,252.5C 1013.43,253.93 1015.93,255.93 1018,258.5C 1019.66,422.132 1019.99,585.799 1019,749.5C 1017.83,756 1014,759.833 1007.5,761C 841.167,761.5 674.834,761.667 508.5,761.5 Z"/></g>
    <g><path style="opacity:1" fill="#6ebe73" d="M 508.5,761.5 C 508.667,842.501 508.5,923.501 508,1004.5C 507.2,1009.79 504.367,1013.46 499.5,1015.5C 419.811,1015.82 340.144,1015.49 260.5,1014.5C 257.365,1012.24 255.198,1009.24 254,1005.5C 253.333,928.167 253.333,850.833 254,773.5C 254.541,767.9 257.374,764.066 262.5,762C 344.499,761.5 426.499,761.333 508.5,761.5 Z"/></g>
    <g><path style="opacity:1" fill="#45825f" d="M 260.5,1014.5 C 340.144,1015.49 419.811,1015.82 499.5,1015.5C 421.001,1016.67 342.334,1016.83 263.5,1016C 262.263,1015.77 261.263,1015.27 260.5,1014.5 Z"/></g>
</svg>